# xmcd
#
# Track frame offsets: 
#        150
#        18811
#        37560
#        56888
#        78196
#        96065
#        115774
#        136097
#        153501
#        176557
#        192351
#        206677
#
# Disc length: 2973 seconds
#
# Revision: 1
# Processed by: cddbd v1.5.2PL0 Copyright (c) Steve Scherf et al.
# Submitted via: ExactAudioCopyFreeDBPlugin 1.0
#
DISCID=8d0b9b0c
DTITLE=Jäääär - Pojaga restoranis
DYEAR=2009
DGENRE=Blues
TTITLE0=Pojaga restoranis
TTITLE1=Reinkarnatsioon
TTITLE2=Vala veini
TTITLE3=Lapsepõlv
TTITLE4=Sindi süit
TTITLE5=Ahtumine
TTITLE6=Piir
TTITLE7=Sul annan andeks kõik
TTITLE8=Sa ei tea
TTITLE9=Laevad
TTITLE10=Su silmades on üks roos (Juudi polka)
TTITLE11=Astud lauldes mu poole
EXTD=
EXTT0=
EXTT1=
EXTT2=
EXTT3=
EXTT4=
EXTT5=
EXTT6=
EXTT7=
EXTT8=
EXTT9=
EXTT10=
EXTT11=
PLAYORDER=
